HIERARCHY
ROOT Hips
{
	OFFSET 0.00000 0.00000 0.00000
	CHANNELS 6 Xposition Yposition Zposition Zrotation Yrotation Xrotation 
	JOINT LHipJoint
	{
		OFFSET 0 0 0
		CHANNELS 3 Zrotation Yrotation Xrotation
		JOINT LeftHip
		{
			OFFSET 1.36337 -1.57426 1.11036
			CHANNELS 3 Zrotation Yrotation Xrotation
			JOINT LeftKnee
			{
				OFFSET 2.38468 -6.55187 0.00000
				CHANNELS 3 Zrotation Yrotation Xrotation
				JOINT LeftAnkle
				{
					OFFSET 2.37166 -6.51609 0.00000
					CHANNELS 3 Zrotation Yrotation Xrotation
					JOINT LeftToe
					{
						OFFSET 0.29078 -0.79891 2.01393
						CHANNELS 3 Zrotation Yrotation Xrotation
						End Site
						{
							OFFSET 0.00000 -0.00000 1.07924
						}
					}
				}
			}
		}
	}
	JOINT RHipJoint
	{
		OFFSET 0 0 0
		CHANNELS 3 Zrotation Yrotation Xrotation
		JOINT RightHip
		{
			OFFSET -1.36349 -1.57426 1.11036
			CHANNELS 3 Zrotation Yrotation Xrotation
			JOINT RightKnee
			{
				OFFSET -2.29562 -6.30717 0.00000
				CHANNELS 3 Zrotation Yrotation Xrotation
				JOINT RightAnkle
				{
					OFFSET -2.40985 -6.62100 0.00000
					CHANNELS 3 Zrotation Yrotation Xrotation
					JOINT RightToe
					{
						OFFSET -0.23197 -0.63733 1.92232
						CHANNELS 3 Zrotation Yrotation Xrotation
						End Site
						{
							OFFSET -0.00000 -0.00000 1.01562
						}
					}
				}
			}
		}
	}
	JOINT lowerback
	{
		OFFSET 0 0 0
		CHANNELS 3 Zrotation Yrotation Xrotation
		JOINT Chest
		{
			OFFSET -0.08565 2.03602 -0.24562
			CHANNELS 3 Zrotation Yrotation Xrotation
			JOINT Chest2
			{
				OFFSET -0.00036 2.05693 0.00216
				CHANNELS 3 Zrotation Yrotation Xrotation
				JOINT lowerneck
				{
					OFFSET 0 0 0
					CHANNELS 3 Zrotation Yrotation Xrotation
					JOINT Neck
					{
						OFFSET -0.03664 1.69515 0.31789
						CHANNELS 3 Zrotation Yrotation Xrotation
						JOINT Head
						{
							OFFSET 0.00932 1.70181 -0.46013
							CHANNELS 3 Zrotation Yrotation Xrotation
							End Site
							{
								OFFSET 0.01243 1.77620 -0.19377
							}
						}
					}
				}
				JOINT LeftCollar
				{
					OFFSET 0 0 0
					CHANNELS 3 Zrotation Yrotation Xrotation
					JOINT LeftShoulder
					{
						OFFSET 3.74344 0.81315 -0.36647
CHANNELS 3 Zrotation Xrotation Yrotation
						JOINT LeftElbow
						{
OFFSET 0 -4.971850 -0.000000
CHANNELS 3 Zrotation Xrotation Yrotation
							JOINT LeftWrist
							{
OFFSET 0 -3.358110 0.000000
CHANNELS 3 Zrotation Xrotation Yrotation
								JOINT lhand
								{
									OFFSET 0 0 0
CHANNELS 3 Zrotation Xrotation Yrotation
									JOINT LFingers
									{
OFFSET 0 -0.622780 0.000000
CHANNELS 3 Zrotation Xrotation Yrotation
										End Site
										{
OFFSET 0 -0.502100 0.000000
										}
									}
								}
								JOINT LThumb
								{
OFFSET 0 0.000000 0.000000
CHANNELS 3 Zrotation Xrotation Yrotation
									End Site
									{
OFFSET 0 -0.509760 0.509760
									}
								}
							}
						}
					}
				}
				JOINT RightCollar
				{
					OFFSET 0 0 0
					CHANNELS 3 Zrotation Yrotation Xrotation
					JOINT RightShoulder
					{
						OFFSET -3.75385 0.50666 -0.06525
CHANNELS 3 Zrotation Xrotation Yrotation
						JOINT RightElbow
						{
OFFSET 0 -4.964930 -0.000000
CHANNELS 3 Zrotation Xrotation Yrotation
							JOINT RightWrist
							{
OFFSET 0 -3.349290 0.000000
CHANNELS 3 Zrotation Xrotation Yrotation
								JOINT rhand
								{
									OFFSET 0 0 0
CHANNELS 3 Zrotation Xrotation Yrotation
									JOINT RFingers
									{
OFFSET 0 -0.638040 0.000000
CHANNELS 3 Zrotation Xrotation Yrotation
										End Site
										{
OFFSET 0 -0.514410 0.000000
										}
									}
								}
								JOINT RThumb
								{
OFFSET 0 0.000000 0.000000
CHANNELS 3 Zrotation Xrotation Yrotation
									End Site
									{
OFFSET 0 -0.522260 0.522260
									}
								}
							}
						}
					}
				}
			}
		}
	}
}
MOTION
Frames: 5
Frame Time: 0.008333333333333333
11.892700 16.352200 0.911700 -160.947000 -81.371100 171.013000 0.000000 0.000000 0.000000 -4.258400 1.694800 -32.538500 4.382700 12.653000 38.083000 -0.039500 7.486800 -9.750800 0.614400 5.016600 13.956000 0.000000 0.000000 0.000000 10.076800 -3.719800 -28.762400 -1.748100 -8.320500 23.691700 -0.255000 -4.248000 -12.066100 -0.646200 -5.142600 14.315700 -0.374400 0.733600 23.168700 0.166700 0.483000 4.951300 0.278200 0.073600 -7.481200 -12.859000 -8.126100 -19.108600 4.769500 -8.895000 22.798800 2.432100 -4.619800 11.407200 0.000000 -0.000000 0.000000 14.126300 -15.478400 -20.973200 25.294400 -36.503400 8.464400 -12.160300 18.136600 15.585200 0.000000 0.000000 0.000000 -7.125000 0.000000 0.000000 -25.960800 14.912500 -20.687400 0.000000 -0.000000 0.000000 -4.656600 -7.714800 28.250900 -26.974900 -38.155300 -9.483600 -8.850500 -9.350200 27.887300 0.000000 0.000000 0.000000 7.125000 0.000000 -0.000000 23.479100 56.565800 -6.922200
12.049300 16.367847 0.659303 -163.446569 -84.222221 175.847414 0.000000 0.000000 0.000000 -3.737390 -0.080824 -35.908588 4.464198 12.753666 38.453171 0.417940 4.054983 -14.374854 0.175143 -2.688140 -7.412130 0.000000 0.000000 0.000000 9.899760 -3.790982 -32.770601 -2.287597 -9.436360 27.173754 -0.523211 -0.585358 -13.933507 -0.167044 1.747841 -4.830397 -1.067377 -0.193412 20.573302 0.451749 -0.790146 5.171093 1.303649 -0.520746 -5.864256 -12.818323 -8.470645 -19.837959 5.792804 -9.350250 20.305212 2.704895 -4.630476 10.708435 0.000000 0.000000 0.000000 13.646539 -15.815533 -28.017293 26.261148 -37.463740 9.046722 5.716061 -2.043011 6.977510 0.000000 0.000000 0.000000 -7.125000 0.000000 0.000000 -15.270787 23.015795 -8.548264 0.000000 0.000000 0.000000 -4.476681 -9.678260 28.643437 -26.853963 -38.039485 -9.408988 -10.639943 -8.798813 27.519104 0.000000 0.000000 0.000000 7.125000 0.000000 0.000000 21.442649 56.591987 -6.295324
12.083087 16.343686 0.473053 -169.374646 -85.063039 182.032032 0.000000 0.000000 0.000000 -3.838146 -0.219741 -36.289732 4.373108 12.640798 38.038554 0.377097 3.706576 -13.560926 0.227760 -3.071399 -8.477682 0.000000 0.000000 0.000000 9.407010 -3.829823 -33.509309 -2.579282 -9.979936 28.912460 -0.397768 -2.361938 -13.079406 -0.669202 5.170150 -14.408556 -1.419042 -0.655020 18.616995 0.618658 -1.477538 6.339176 1.784385 -0.909676 -3.557461 -12.718185 -8.545010 -20.751672 6.303817 -9.342076 18.501719 2.850880 -4.512469 10.238574 0.000000 0.000000 0.000000 12.937338 -16.280767 -35.286262 27.840308 -38.968711 10.023087 26.768012 -27.735695 8.416420 0.000000 0.000000 0.000000 -7.125000 0.000000 0.000000 -0.082279 20.568629 -0.045184 0.000000 0.000000 0.000000 -4.786634 -12.188119 29.671667 -26.392622 -37.593772 -9.126137 -10.116642 -9.415707 27.660798 0.000000 0.000000 0.000000 7.125000 0.000000 0.000000 22.061357 56.616586 -6.501436
11.930012 16.353843 0.366945 -169.553659 -82.748687 179.596207 0.000000 0.000000 0.000000 -3.514191 1.354917 -31.883643 4.212829 12.438333 37.300943 0.454064 4.223733 -14.978448 0.241539 -3.162869 -8.732481 0.000000 0.000000 0.000000 9.583049 -3.614170 -30.519154 -2.710631 -10.211215 29.663342 -0.100249 -6.892402 -11.946273 -0.454370 4.292147 -11.905457 -0.530207 -0.211032 21.684113 0.585101 -0.768109 5.723325 1.149342 -0.546966 -5.848522 -12.655841 -8.485884 -20.678588 5.489354 -9.198397 19.994044 2.572052 -4.560423 10.707825 0.000000 0.000000 0.000000 11.522375 -13.428037 -36.802068 27.508472 -38.659742 9.815084 28.000966 -29.063120 12.583491 0.000000 0.000000 0.000000 -7.125000 0.000000 0.000000 0.499101 15.791050 0.346022 0.000000 0.000000 0.000000 -5.448880 -9.888822 30.829360 -26.349403 -37.551632 -9.099755 -9.509566 -9.939787 28.000197 0.000000 0.000000 0.000000 7.125000 0.000000 0.000000 22.900452 56.803783 -6.873038
11.924423 16.342968 0.210870 -173.001598 -82.842562 182.645679 0.000000 0.000000 0.000000 -3.545702 1.688862 -31.195788 4.066444 12.248123 36.615797 0.450090 3.770903 -14.620608 0.381815 -3.963262 -10.973921 0.000000 0.000000 0.000000 9.715464 -4.066703 -30.539236 -2.843360 -10.436832 30.403413 -0.155048 -6.485111 -12.458865 -0.303015 3.537200 -9.778326 -0.078511 -0.428005 22.325265 0.436570 -0.954448 5.495898 0.796667 -0.633280 -6.433366 -12.675299 -8.701356 -20.861093 5.791269 -9.547866 20.076916 2.617711 -4.680583 10.823530 0.000000 0.000000 0.000000 10.755382 -12.882460 -38.677002 26.599398 -37.792881 9.253212 27.558736 -26.593617 10.075867 0.000000 0.000000 0.000000 -7.125000 0.000000 0.000000 0.384406 18.647189 0.239103 0.000000 0.000000 0.000000 -5.450532 -9.861115 31.365835 -25.551373 -36.761559 -8.618036 -11.042337 -9.792547 26.751138 0.000000 0.000000 0.000000 7.125000 0.000000 0.000000 20.546249 55.957937 -5.697329
